<svg height="1536" viewBox="0 0 1152 1152" width="1536" xmlns="http://www.w3.org/2000/svg"><path d="m551.8.5c-.1.1-4.1.5-8.8.9-7.7.5-12.6 1-23 2.1-1.9.2-4.6.6-6 .9-1.4.2-4.7.7-7.5 1.1-2.7.3-5.7.8-6.5 1s-3.1.6-5 .9-4.6.8-6 1.1-3.6.7-5 .9-4.3.9-6.5 1.4c-2.2.6-5.1 1.3-6.5 1.6-5.8 1.2-22.8 5.8-26.3 7.1-2 .8-3.9 1.5-4.2 1.4-1-.1-17.1 5.3-21.2 7.2-2.4 1-4.8 1.9-5.4 1.9-1.1 0-2.4.5-12.1 4.9-2.6 1.1-5 2.1-5.3 2.1-.2 0-4.2 1.8-8.9 4-4.6 2.2-8.9 4-9.4 4-.6 0-1.7.6-2.4 1.2-.8.7-5.9 3.5-11.4 6.3-5.4 2.7-10.1 5.3-10.4 5.6-.3.4-2.4 1.6-4.8 2.8-5.8 3-15.6 9.2-16 10.3-.2.4-.7.6-1.2.3s-1.4.1-2.2.8c-.7.7-2.6 2.2-4.3 3.3-3.7 2.3-17.1 11.7-20.5 14.4-6 4.6-19.6 15.5-20.6 16.4-.7.6-3.1 2.7-5.5 4.6-5.7 4.5-34.9 33.8-41.6 41.5-2.9 3.3-6.4 7.3-7.8 9-10.6 12.2-39.8 54.3-43.6 62.8-.5 1.2-1.9 3.8-3.1 5.7-2.3 3.7-16.8 32.6-16.8 33.4 0 .3-1.1 2.9-2.4 5.8-3.1 6.9-4 9.1-3.8 10 .1.5-.3.8-1 .8-.6 0-.9.3-.6.6.4.3-.6 3.6-2.2 7.4s-2.6 7.1-2.2 7.4c.3.3-.1.6-.8.6s-1.1.3-.8.6-.9 4.9-2.7 10.2-3.1 10-2.9 10.4c.3.4 0 .8-.6.8s-.9.4-.6.8c.3.5-.1 2-.9 3.5-.7 1.4-1.2 2.7-1 2.9s-.5 3.7-1.6 7.8-2.2 8.6-2.5 10c-.2 1.4-.7 3.1-1 3.9-.2.8-.7 3-1 5-.8 4.5-1.2 6.6-1.4 6.6-.1 0-.3 1.6-.6 3.5-.2 1.9-.9 5.8-1.4 8.6-.6 2.8-1.2 6.6-1.5 8.5-.2 1.9-.6 5.2-.9 7.4-2.4 17.3-3 29.7-3 59 0 25.3.4 34.2 2 50 .3 2.7.7 6.8.9 9 .5 5.1 1.5 12.3 2.1 15.5.3 1.4.7 4.1 1 6 .7 4.9 1.2 7.7 1.8 9.8.3.9.7 3.5 1.1 5.7.3 2.2 1 5.6 1.5 7.5s1.1 4.6 1.3 6c.3 1.4 1 4.5 1.7 7s1.4 5.2 1.5 6c.2.8.4 1.7.6 2 .1.3.3.9.4 1.5.1.5.4 1.7.7 2.5s2.2 6.9 4.2 13.5c2.1 6.6 4.1 12.9 4.5 14 .5 1.1 1.6 3.6 2.5 5.7.9 2 1.6 3.9 1.6 4.2 0 .4.7 2.3 1.6 4.4 1 2 1.8 4.1 1.9 4.7.3 1 5.9 13.3 9.8 21.5 1.2 2.5 2.5 4.7 2.8 5 .4.3 1 1.6 1.4 3s1.3 3.2 1.9 4 2.2 3.5 3.5 6 3 5.2 3.8 6.1c.7.9 1 1.9.6 2.2-.3.4-.1.7.5.7.7 0 1.2.7 1.2 1.5 0 .7.7 1.8 1.6 2.3s1.4 1.1 1.2 1.5c-.4.7 4.5 8.6 5.5 8.7.4 0 .7.5.7 1.1 0 1.3 12.9 19.2 14.1 19.7.5.2.9.8.9 1.4s1.9 3.3 4.3 6.1c2.3 2.9 4.9 6 5.7 7 12.8 15.7 32.9 36.1 51.9 52.4 4.2 3.6 4.4 3.8 14.8 11.8 5.4 4.2 10.5 8.2 11.3 8.8 2.9 2.3 32 21.7 32.6 21.7.3 0 1.8.8 3.2 1.9 1.5 1 4.4 2.8 6.4 4 2.1 1.1 5.5 3.1 7.5 4.3 8.6 4.9 38.5 19.8 39.8 19.8.8 0 1.5.4 1.5 1 0 .5.5 1 1 1 .6 0 3.2 1 5.8 2.1 2.6 1.2 6.3 2.8 8.2 3.6s4.4 1.8 5.5 2.3c8.6 3.6 29.6 11.4 39.5 14.6 2.5.8 7.2 2.3 10.5 3.4 8.4 2.7 17.7 5.4 22.3 6.4 1.3.3 3.2.8 4.2 1.1 3.4 1.1 6.5 1.7 8.8 1.9 1.2 0 2.2.5 2.2.9 0 .5.8.7 1.8.5.9-.1 2.2 0 2.7.4.6.3 5.1 1.3 10 2.2 5 1 9.7 1.9 10.5 2.1 1.4.5 1.6 13.1 1.5 121.5 0 66.6.3 121 .6 121 .7 0 9.3-7.3 9.7-8.2.2-.5 1.1-.8 2-.8.8 0 1.3-.3.9-.6-.3-.4 1.5-2.3 4.1-4.4s5.9-4.9 7.3-6.2c1.4-1.2 5.2-4.6 8.4-7.3 3.1-2.8 6.7-5.9 7.9-7 5.7-5.1 17.4-15.6 19.6-17.5 5.1-4.4 38.3-35.1 52.6-48.5 52.2-49.2 125.3-123.3 160.5-162.6 1.3-1.5 5.8-6.4 9.9-10.9 12.5-13.7 13.4-14.8 15-16.7.9-1 3.6-4.1 6-6.8 2.5-2.8 7-7.9 10-11.4s6-6.9 6.5-7.5c.6-.6 3.6-4.1 6.6-7.7 8.3-9.8 8.2-9.7 11.4-13.4 1.7-1.9 4-4.7 5.2-6.3s3.3-4 4.5-5.3c1.3-1.4 4.3-5.1 6.7-8.2s4.7-5.7 5.2-5.7c.4 0 1-.8 1.3-1.8.3-.9 1.6-2.8 2.8-4.2 1.3-1.4 4.1-4.8 6.2-7.5 2.2-2.8 4.6-5.7 5.3-6.5 4.2-4.7 21.3-27.1 21.3-27.9 0-.5.4-1.1.8-1.3.5-.2 4.1-4.6 8-9.8s7.6-10 8.2-10.7c.5-.7 1-1.7 1-2.3 0-.5.5-1 1-1 .6 0 1-.7 1-1.5s.4-1.5.8-1.5c.5 0 1.5-1.2 2.3-2.8.8-1.5 1.9-3.2 2.4-3.9 3.1-3.8 5.4-7.4 6.1-9.6.4-.9 1-1.7 1.5-1.7s.9-.5.9-1.1 1.5-3.7 3.4-6.8c7.2-11.9 18.6-34 18.6-36 0-.6.5-1.1 1-1.1.6 0 1-.4 1-1 0-.5 2.7-7.4 6.1-15.2 3.4-7.9 6.2-14.8 6.3-15.3.3-.9.7-2.1 3.6-9.5.6-1.4 1.2-3.4 1.5-4.5.3-1.7 2.1-7.2 7.3-22.5.3-.8.6-2 .7-2.5.2-.6.9-3.3 1.8-6 .8-2.8 1.5-5.3 1.6-5.8 0-.4.1-.8.2-1s.1-.4 2-7.7c.6-2.5 1.3-5.4 1.5-6.5s1-5.1 1.9-8.8c.8-3.7 1.7-8.1 2-9.7 1-6.1 1.5-8.6 2-11 .4-1.4.8-4.5 1-7s.7-6 1-7.8c1.2-7.3 1.5-10.2 2.2-20.2 1.5-20.3.9-55.8-1.2-71-1.1-8-1.7-12.7-2-14.5-.2-1.1-.6-3.4-.9-5-.2-1.7-.7-4.1-1-5.5s-.8-3.6-1-5c-.3-1.4-1-4.8-1.5-7.5-.6-2.8-1.4-6.4-1.7-8-.4-1.7-2-8-3.6-14-1.7-6.1-3.2-11.7-3.3-12.5s-.5-2.3-.9-3.2-.8-2.2-1-3c-.1-.7-.4-1.8-.7-2.3-.4-.6-1-2.4-1.4-4-1.2-4.4-1.2-4.5-1.5-5-.1-.3-.3-.8-.5-1.3-.1-.4-.4-1.4-.7-2.2-3-8-5.9-17-5.6-17.3.1-.2-.2-1-.8-1.8-.7-.8-2.4-4.6-3.9-8.4-1.5-3.9-5-11.7-7.7-17.5-8.7-18.4-12.1-24.8-26.9-50-.8-1.3-2-3-2.6-3.8-.7-.7-1.3-2-1.3-2.8s-.4-1.4-.8-1.4c-.5 0-1.5-1.2-2.3-2.7s-4.2-6.6-7.7-11.3-7.1-9.6-8-10.8c-3.5-4.8-13.7-17.4-16.4-20.4-1-1-1.8-2-1.8-2.2 0-1.8-37.8-39.3-46.6-46.2-4-3.2-6.5-5.3-10.6-9-1.5-1.3-3-2.4-3.3-2.4-.5 0-3.6-2.5-6-4.8-.8-.6-1.8-1.2-2.3-1.2-.6 0-1.2-.4-1.4-.8-.1-.4-2.5-2.3-5.3-4.2-2.7-1.9-5.5-4-6.2-4.7-.7-.6-2.2-1.5-3.3-1.8s-2-1.1-2-1.6-.7-.9-1.5-.9-1.5-.5-1.5-1c0-.6-.6-1-1.4-1s-1.6-.3-1.8-.8c-.3-.7-11.1-7.3-22.3-13.7-7.7-4.5-34.2-17.5-35.4-17.5-.6 0-1.1-.5-1.1-1.2 0-.6-.3-.9-.6-.6-.3.4-5.4-1.4-11.2-3.9-5.9-2.4-16.1-6.2-22.7-8.4s-12.7-4.3-13.5-4.6-2.2-.8-3-1-2.2-.5-3-.8c-.8-.2-1.5-.4-1.5-.5s-.7-.3-1.5-.5c-1.9-.5-4.4-1.1-9.5-2.5-2.2-.6-4.9-1.3-6-1.5s-3.5-.8-5.4-1.4-3.7-.9-3.9-.6c-.3.2-1.2 0-2.2-.5-.9-.5-3.9-1.2-6.6-1.6-2.7-.3-5.1-.8-5.4-.9-.3-.2-5-1.1-10.5-1.9-5.5-.9-11.6-1.9-13.5-2.2-4.2-.7-10.4-1.4-25.5-2.9-5.7-.6-64.2-1.5-64.7-1z"/></svg>