<svg width="28" height="36" viewBox="0 0 28 36" fill="none" xmlns="http://www.w3.org/2000/svg">
<path d="M12.396 35.3055V27.7095C12.396 27.7095 0 25.9205 0 13.8545C0 6.20646 6.146 0.166464 13.724 0.00346362C20.961 -0.150536 26.804 4.84546 27.891 12.0695C28.391 15.3885 27.114 19.3715 25.235 21.9005C19.922 29.0505 12.396 35.3065 12.396 35.3065V35.3055Z" fill="#1258FF"/>
<path d="M14 20.9645C17.866 20.9645 21 17.8305 21 13.9645C21 10.0985 17.866 6.96448 14 6.96448C10.134 6.96448 7 10.0985 7 13.9645C7 17.8305 10.134 20.9645 14 20.9645Z" fill="white"/>
</svg>
